<svg width="18" height="16" viewBox="0 0 18 16" fill="none" xmlns="http://www.w3.org/2000/svg">
<path d="M8.75039 11.2432C8.2609 11.2432 7.8512 11.6529 7.8512 12.1424C7.8512 12.6318 8.2609 13.0415 8.75039 13.0415C9.22263 13.0415 9.64958 12.6318 9.62802 12.1639C9.64958 11.6507 9.24419 11.2432 8.75039 11.2432Z" fill="#F58749"/>
<path d="M17.076 14.4302C17.6409 13.4555 17.6452 12.2933 17.0824 11.3208L11.4479 1.5655C10.8916 0.58221 9.88459 0 8.75467 0C7.62475 0 6.61774 0.586523 6.05925 1.56119L0.418282 11.3294C-0.142365 12.3105 -0.140209 13.4814 0.429063 14.4561C0.98971 15.4199 1.99456 16 3.11586 16H14.3698C15.4975 16 16.5067 15.4135 17.076 14.4302ZM15.8533 13.7251C15.5407 14.2642 14.9865 14.5854 14.3676 14.5854H3.1137C2.5013 14.5854 1.95144 14.2728 1.64524 13.7445C1.33688 13.2075 1.33257 12.5671 1.64092 12.028L7.28189 2.26415C7.58809 1.72722 8.13365 1.4124 8.75251 1.4124C9.36707 1.4124 9.91909 1.73154 10.2231 2.26846L15.8598 12.0323C16.166 12.5563 16.1617 13.1903 15.8533 13.7251Z" fill="#F58749"/>
<path d="M8.52832 4.92949C8.09921 5.0524 7.83398 5.44054 7.83398 5.91062C7.85555 6.19526 7.8728 6.48205 7.89436 6.76669C7.95474 7.84917 8.01727 8.91008 8.07765 9.99472C8.09921 10.3613 8.38385 10.6287 8.75043 10.6287C9.117 10.6287 9.40595 10.344 9.4232 9.97316C9.4232 9.75105 9.4232 9.54405 9.44476 9.31763C9.48358 8.62329 9.52671 7.92895 9.56768 7.23461C9.58924 6.78394 9.62805 6.33542 9.64962 5.88475C9.64962 5.72302 9.62805 5.57855 9.56768 5.43407C9.38439 5.03299 8.95528 4.82814 8.52832 4.92949Z" fill="#F58749"/>
</svg>
